<?xml version="1.0" encoding="UTF-8"?>
<svg xmlns="http://www.w3.org/2000/svg" xmlns:xlink="http://www.w3.org/1999/xlink" viewBox="0 0 48 48" width="48px" height="48px">
<g id="surface38483335">
<path style=" stroke:none;fill-rule:nonzero;fill:rgb(40.000001%,40.000001%,40.000001%);fill-opacity:1;" d="M 24.140625 48.140625 C 10.882812 48.140625 0.140625 37.394531 0.140625 24.140625 C 0.140625 10.882812 10.882812 0.140625 24.140625 0.140625 C 37.394531 0.140625 48.140625 10.882812 48.140625 24.140625 C 48.140625 37.394531 37.394531 48.140625 24.140625 48.140625 Z M 24.140625 48.140625 "/>
<path style=" stroke:none;fill-rule:nonzero;fill:rgb(68.235296%,83.529413%,50.588238%);fill-opacity:1;" d="M 34.371094 27.925781 L 31.835938 29.515625 C 31.835938 29.515625 32.679688 31.898438 34.371094 31.105469 C 36.0625 30.3125 34.371094 27.925781 34.371094 27.925781 Z M 34.371094 27.925781 "/>
<path style=" stroke:none;fill-rule:nonzero;fill:rgb(100%,80.000001%,50.196081%);fill-opacity:1;" d="M 35.125 27.28125 L 29.5625 28.871094 L 29.5625 20.128906 C 29.5625 20.128906 29.980469 20.003906 30.355469 20.128906 C 32.742188 20.925781 35.125 27.28125 35.125 27.28125 Z M 35.125 27.28125 "/>
<path style=" stroke:none;fill-rule:nonzero;fill:rgb(100%,80.000001%,50.196081%);fill-opacity:1;" d="M 12.875 27.28125 L 18.4375 28.871094 L 18.4375 20.128906 C 18.4375 20.128906 18.019531 20.003906 17.644531 20.128906 C 15.257812 20.925781 12.875 27.28125 12.875 27.28125 Z M 12.875 27.28125 "/>
<path style=" stroke:none;fill-rule:nonzero;fill:rgb(100%,71.764708%,30.19608%);fill-opacity:1;" d="M 35.246094 28.765625 L 31.332031 30.230469 C 30.878906 30.402344 30.371094 30.167969 30.199219 29.714844 L 29.703125 28.386719 C 29.53125 27.933594 29.761719 27.425781 30.21875 27.253906 L 34.132812 25.789062 C 34.589844 25.617188 35.097656 25.847656 35.265625 26.304688 L 35.765625 27.628906 C 35.933594 28.085938 35.703125 28.59375 35.246094 28.765625 Z M 35.246094 28.765625 "/>
<path style=" stroke:none;fill-rule:nonzero;fill:rgb(68.235296%,83.529413%,50.588238%);fill-opacity:1;" d="M 13.628906 27.925781 L 16.164062 29.515625 C 16.164062 29.515625 15.320312 31.898438 13.628906 31.105469 C 11.9375 30.3125 13.628906 27.925781 13.628906 27.925781 Z M 13.628906 27.925781 "/>
<path style=" stroke:none;fill-rule:nonzero;fill:rgb(100%,71.764708%,30.19608%);fill-opacity:1;" d="M 12.753906 28.765625 L 16.667969 30.230469 C 17.121094 30.402344 17.628906 30.167969 17.800781 29.714844 L 18.296875 28.386719 C 18.46875 27.933594 18.238281 27.425781 17.78125 27.253906 L 13.867188 25.789062 C 13.410156 25.617188 12.902344 25.847656 12.734375 26.304688 L 12.234375 27.628906 C 12.066406 28.085938 12.296875 28.59375 12.753906 28.765625 Z M 12.753906 28.765625 "/>
<path style=" stroke:none;fill-rule:nonzero;fill:rgb(100%,80.000001%,50.196081%);fill-opacity:1;" d="M 33.367188 36.320312 C 33.46875 37.085938 33.003906 37.816406 32.265625 38.042969 C 30.71875 38.511719 27.132812 39.199219 24 39.199219 C 20.867188 39.199219 17.28125 38.511719 15.734375 38.042969 C 14.996094 37.816406 14.53125 37.085938 14.632812 36.320312 L 18.4375 19.335938 L 29.5625 19.335938 Z M 33.367188 36.320312 "/>
<path style=" stroke:none;fill-rule:nonzero;fill:rgb(100%,54.11765%,39.607844%);fill-opacity:1;" d="M 31.152344 12.183594 C 30.0625 12.183594 28.855469 12.402344 28.371094 13.375 L 28.371094 16.554688 C 31.945312 16.953125 38.304688 12.183594 38.304688 12.183594 Z M 31.152344 12.183594 "/>
<path style=" stroke:none;fill-rule:nonzero;fill:rgb(68.235296%,83.529413%,50.588238%);fill-opacity:1;" d="M 28.792969 17.371094 C 28.617188 17.371094 28.449219 17.363281 28.28125 17.34375 L 28.457031 15.765625 C 30.371094 15.976562 33.480469 14.375 35.714844 12.980469 L 31.152344 12.980469 C 30.027344 12.980469 29.332031 13.234375 29.082031 13.730469 L 27.660156 13.019531 C 28.199219 11.9375 29.375 11.390625 31.152344 11.390625 L 38.304688 11.390625 C 38.644531 11.390625 38.949219 11.609375 39.054688 11.933594 C 39.164062 12.257812 39.054688 12.613281 38.78125 12.820312 C 38.519531 13.011719 32.664062 17.371094 28.792969 17.371094 Z M 28.792969 17.371094 "/>
<path style=" stroke:none;fill-rule:nonzero;fill:rgb(100%,54.11765%,39.607844%);fill-opacity:1;" d="M 16.847656 12.183594 L 9.695312 12.183594 C 9.695312 12.183594 16.054688 16.953125 19.628906 16.554688 L 19.628906 13.375 C 19.144531 12.402344 17.9375 12.183594 16.847656 12.183594 Z M 16.847656 12.183594 "/>
<path style=" stroke:none;fill-rule:nonzero;fill:rgb(68.235296%,83.529413%,50.588238%);fill-opacity:1;" d="M 19.207031 17.371094 C 15.335938 17.371094 9.480469 13.011719 9.222656 12.820312 C 8.945312 12.613281 8.835938 12.257812 8.945312 11.933594 C 9.050781 11.609375 9.355469 11.390625 9.695312 11.390625 L 16.847656 11.390625 C 18.625 11.390625 19.800781 11.9375 20.339844 13.019531 L 18.917969 13.730469 C 18.667969 13.230469 17.972656 12.976562 16.847656 12.976562 L 12.285156 12.976562 C 14.519531 14.375 17.632812 15.976562 19.542969 15.765625 L 19.71875 17.34375 C 19.550781 17.363281 19.382812 17.371094 19.207031 17.371094 Z M 19.207031 17.371094 "/>
<path style=" stroke:none;fill-rule:nonzero;fill:rgb(68.235296%,83.529413%,50.588238%);fill-opacity:1;" d="M 24 9.800781 C 20.019531 9.800781 17.644531 11.652344 17.644531 14.757812 C 17.644531 17.539062 19.671875 19.335938 22.808594 19.335938 L 25.191406 19.335938 C 28.328125 19.335938 30.355469 17.539062 30.355469 14.757812 C 30.355469 11.652344 27.980469 9.800781 24 9.800781 Z M 24 9.800781 "/>
<path style=" stroke:none;fill-rule:nonzero;fill:rgb(48.627451%,70.19608%,25.882354%);fill-opacity:1;" d="M 24.792969 17.746094 C 24.792969 18.183594 24.4375 18.539062 24 18.539062 C 23.5625 18.539062 23.207031 18.183594 23.207031 17.746094 Z M 24.792969 17.746094 "/>
<path style=" stroke:none;fill-rule:nonzero;fill:rgb(48.627451%,70.19608%,25.882354%);fill-opacity:1;" d="M 24 14.628906 L 23.804688 14.515625 C 21.265625 13.066406 19.078125 14.488281 19.054688 14.5 L 18.613281 13.839844 C 18.71875 13.769531 21.125 12.207031 24 13.71875 C 26.871094 12.207031 29.28125 13.769531 29.382812 13.839844 L 28.945312 14.5 C 28.855469 14.441406 26.71875 13.074219 24.195312 14.515625 Z M 24 14.628906 "/>
<path style=" stroke:none;fill-rule:nonzero;fill:rgb(100%,71.764708%,30.19608%);fill-opacity:1;" d="M 25.589844 20.128906 L 25.589844 39.144531 C 25.050781 39.183594 24.515625 39.199219 24 39.199219 C 23.484375 39.199219 22.949219 39.183594 22.410156 39.144531 L 22.410156 20.128906 Z M 25.589844 20.128906 "/>
<path style=" stroke:none;fill-rule:nonzero;fill:rgb(100%,71.764708%,30.19608%);fill-opacity:1;" d="M 30.179688 16.953125 C 28.8125 17.460938 28.414062 19.335938 24 19.335938 C 19.585938 19.335938 19.1875 17.460938 17.820312 16.953125 C 16.515625 16.464844 16.054688 19.335938 16.054688 20.925781 C 16.054688 23.171875 24 23.308594 24 23.308594 C 24 23.308594 31.945312 23.171875 31.945312 20.925781 C 31.945312 19.335938 31.484375 16.464844 30.179688 16.953125 Z M 30.179688 16.953125 "/>
<path style=" stroke:none;fill-rule:nonzero;fill:rgb(24.313726%,15.294118%,13.725491%);fill-opacity:1;" d="M 23.207031 16.953125 C 23.207031 14.566406 20.027344 14.566406 19.234375 16.15625 C 19.234375 16.953125 21.617188 18.539062 23.207031 16.953125 Z M 23.207031 16.953125 "/>
<path style=" stroke:none;fill-rule:nonzero;fill:rgb(24.313726%,15.294118%,13.725491%);fill-opacity:1;" d="M 24.792969 16.953125 C 24.792969 14.566406 27.972656 14.566406 28.769531 16.15625 C 28.769531 16.953125 26.382812 18.539062 24.792969 16.953125 Z M 24.792969 16.953125 "/>
<path style=" stroke:none;fill-rule:nonzero;fill:rgb(100%,65.490198%,14.901961%);fill-opacity:1;" d="M 26.488281 22.480469 C 26.296875 22.742188 26.082031 22.992188 25.84375 23.210938 L 25.835938 23.210938 C 24.769531 23.292969 24 23.308594 24 23.308594 C 24 23.308594 23.191406 23.292969 22.09375 23.203125 C 23.484375 23.007812 24.5625 22.433594 25.191406 21.550781 C 25.683594 20.867188 25.882812 20.019531 25.730469 19.214844 C 26.351562 19.128906 26.851562 18.992188 27.273438 18.828125 C 27.535156 20.089844 27.25 21.417969 26.488281 22.480469 Z M 26.488281 22.480469 "/>
<path style=" stroke:none;fill-rule:nonzero;fill:rgb(0%,0%,0%);fill-opacity:1;" d="M 22.410156 15.757812 C 22.410156 16.417969 21.878906 16.953125 21.21875 16.953125 C 20.558594 16.953125 20.027344 16.417969 20.027344 15.757812 C 20.027344 15.601562 20.058594 15.449219 20.113281 15.316406 C 20.796875 14.972656 21.671875 14.949219 22.324219 15.316406 C 22.378906 15.449219 22.410156 15.601562 22.410156 15.757812 Z M 22.410156 15.757812 "/>
<path style=" stroke:none;fill-rule:nonzero;fill:rgb(84.313726%,80.000001%,78.431374%);fill-opacity:1;" d="M 20.820312 15.757812 C 20.820312 15.980469 20.644531 16.15625 20.425781 16.15625 C 20.203125 16.15625 20.027344 15.980469 20.027344 15.757812 C 20.027344 15.539062 20.203125 15.363281 20.425781 15.363281 C 20.644531 15.363281 20.820312 15.539062 20.820312 15.757812 Z M 20.820312 15.757812 "/>
<path style=" stroke:none;fill-rule:nonzero;fill:rgb(0%,0%,0%);fill-opacity:1;" d="M 27.972656 15.757812 C 27.972656 16.417969 27.441406 16.953125 26.78125 16.953125 C 26.121094 16.953125 25.589844 16.417969 25.589844 15.757812 C 25.589844 15.601562 25.621094 15.449219 25.675781 15.316406 C 26.328125 14.949219 27.203125 14.972656 27.886719 15.316406 C 27.941406 15.449219 27.972656 15.601562 27.972656 15.757812 Z M 27.972656 15.757812 "/>
<path style=" stroke:none;fill-rule:nonzero;fill:rgb(84.313726%,80.000001%,78.431374%);fill-opacity:1;" d="M 26.382812 15.757812 C 26.382812 15.980469 26.207031 16.15625 25.988281 16.15625 C 25.765625 16.15625 25.589844 15.980469 25.589844 15.757812 C 25.589844 15.539062 25.765625 15.363281 25.988281 15.363281 C 26.207031 15.363281 26.382812 15.539062 26.382812 15.757812 Z M 26.382812 15.757812 "/>
</g>
</svg>
