<?xml version="1.0" encoding="UTF-8"?>
<svg xmlns="http://www.w3.org/2000/svg" xmlns:xlink="http://www.w3.org/1999/xlink" viewBox="0 0 48 48" width="48px" height="48px">
<g id="surface148303301">
<path style=" stroke:none;fill-rule:nonzero;fill:rgb(49.803922%,74.509805%,96.078432%);fill-opacity:1;" d="M 24.140625 48.140625 C 10.882812 48.140625 0.140625 37.394531 0.140625 24.140625 C 0.140625 10.882812 10.882812 0.140625 24.140625 0.140625 C 37.394531 0.140625 48.140625 10.882812 48.140625 24.140625 C 48.140625 37.394531 37.394531 48.140625 24.140625 48.140625 Z M 24.140625 48.140625 "/>
<path style=" stroke:none;fill-rule:nonzero;fill:rgb(48.627451%,70.19608%,25.882354%);fill-opacity:1;" d="M 33 25.5 C 33 29.917969 29.058594 33.5 24.199219 33.5 C 19.339844 33.5 15.398438 29.917969 15.398438 25.5 C 15.398438 21.082031 19.339844 17.5 24.199219 17.5 C 29.058594 17.5 33 21.082031 33 25.5 Z M 33 25.5 "/>
<path style=" stroke:none;fill-rule:nonzero;fill:rgb(100%,23.921569%,0%);fill-opacity:1;" d="M 38.601562 15.707031 C 38.601562 15.707031 38.96875 10.714844 37 9.402344 C 34.601562 7.800781 32.199219 8.886719 30.601562 8.089844 C 26.609375 6.09375 26.601562 5.5 25 5.5 C 21.816406 5.5 16.265625 14.300781 16.265625 18.277344 L 31.933594 18.203125 C 31.933594 15.976562 29.800781 11 29.800781 11 C 34.597656 11 37.039062 15.886719 37.039062 15.886719 Z M 38.601562 15.707031 "/>
<path style=" stroke:none;fill-rule:nonzero;fill:rgb(48.627451%,70.19608%,25.882354%);fill-opacity:1;" d="M 37.800781 30.300781 C 37.800781 38.371094 24.199219 41.5 24.199219 41.5 C 24.199219 41.5 10.601562 38.371094 10.601562 30.300781 C 10.601562 25.703125 16.246094 27.101562 24.199219 27.101562 C 32.152344 27.101562 37.800781 25.703125 37.800781 30.300781 Z M 37.800781 30.300781 "/>
<path style=" stroke:none;fill-rule:nonzero;fill:rgb(48.627451%,70.19608%,25.882354%);fill-opacity:1;" d="M 33.808594 25.519531 C 33.808594 25.519531 38.605469 24.699219 40.207031 31.902344 C 40.207031 31.902344 39.484375 31.4375 38.601562 30.984375 C 38.601562 30.984375 39.597656 32.953125 39.40625 35.097656 L 37.667969 33.34375 C 37.667969 33.34375 37.828125 35.140625 37.355469 36.695312 L 36.207031 34.804688 C 36.207031 34.804688 36.207031 36.699219 34.609375 37.5 L 34.609375 35.101562 L 30.242188 36.167969 Z M 33.808594 25.519531 "/>
<path style=" stroke:none;fill-rule:nonzero;fill:rgb(48.627451%,70.19608%,25.882354%);fill-opacity:1;" d="M 14.601562 25.519531 C 14.601562 25.519531 9.800781 24.699219 8.199219 31.902344 C 8.199219 31.902344 8.921875 31.4375 9.808594 30.984375 C 9.808594 30.984375 8.808594 32.953125 9 35.097656 L 10.738281 33.34375 C 10.738281 33.34375 10.578125 35.140625 11.050781 36.695312 L 12.199219 34.820312 C 12.199219 34.820312 12.199219 36.699219 13.800781 37.5 L 13.800781 35.101562 L 18.164062 36.167969 Z M 14.601562 25.519531 "/>
<path style=" stroke:none;fill-rule:nonzero;fill:rgb(48.627451%,70.19608%,25.882354%);fill-opacity:1;" d="M 38.601562 29.898438 C 38.601562 32.328125 36.628906 34.300781 34.199219 34.300781 C 31.769531 34.300781 29.800781 32.328125 29.800781 29.898438 C 29.800781 27.46875 31.769531 25.5 34.199219 25.5 C 36.628906 25.5 38.601562 27.46875 38.601562 29.898438 Z M 38.601562 29.898438 "/>
<path style=" stroke:none;fill-rule:nonzero;fill:rgb(48.627451%,70.19608%,25.882354%);fill-opacity:1;" d="M 18.601562 29.898438 C 18.601562 32.328125 16.628906 34.300781 14.199219 34.300781 C 11.769531 34.300781 9.800781 32.328125 9.800781 29.898438 C 9.800781 27.46875 11.769531 25.5 14.199219 25.5 C 16.628906 25.5 18.601562 27.46875 18.601562 29.898438 Z M 18.601562 29.898438 "/>
<path style=" stroke:none;fill-rule:nonzero;fill:rgb(81.176472%,84.705883%,86.274511%);fill-opacity:1;" d="M 41.375 17.734375 C 41.730469 17.488281 41.894531 17.042969 41.746094 16.621094 C 41.746094 16.625 41.746094 16.625 41.746094 16.625 C 41.601562 16.203125 41.191406 15.953125 40.765625 15.980469 C 40.878906 15.578125 40.707031 15.128906 40.324219 14.90625 C 39.9375 14.675781 39.460938 14.746094 39.160156 15.039062 C 38.976562 14.65625 38.558594 14.417969 38.121094 14.496094 C 37.683594 14.566406 37.359375 14.925781 37.316406 15.347656 C 36.933594 15.167969 36.457031 15.261719 36.175781 15.597656 C 35.882812 15.933594 35.871094 16.414062 36.113281 16.765625 C 35.703125 16.875 35.398438 17.246094 35.398438 17.6875 C 35.398438 18.109375 35.671875 18.460938 36.042969 18.597656 C 35.832031 18.929688 35.84375 19.375 36.109375 19.703125 C 36.386719 20.046875 36.859375 20.15625 37.242188 19.992188 C 37.269531 20.410156 37.578125 20.777344 38.023438 20.867188 C 38.089844 20.878906 38.148438 20.878906 38.210938 20.878906 C 38.578125 20.878906 38.914062 20.675781 39.078125 20.355469 C 39.371094 20.65625 39.847656 20.738281 40.238281 20.527344 C 40.628906 20.3125 40.808594 19.871094 40.714844 19.460938 C 41.140625 19.503906 41.550781 19.261719 41.714844 18.84375 C 41.875 18.4375 41.726562 17.980469 41.375 17.734375 Z M 41.375 17.734375 "/>
<path style=" stroke:none;fill-rule:nonzero;fill:rgb(81.176472%,84.705883%,86.274511%);fill-opacity:1;" d="M 15.800781 16.300781 L 33 16.300781 L 33 21.101562 L 15.800781 21.101562 Z M 15.800781 16.300781 "/>
<path style=" stroke:none;fill-rule:nonzero;fill:rgb(81.176472%,84.705883%,86.274511%);fill-opacity:1;" d="M 33.800781 16.300781 C 33.800781 16.960938 33.261719 17.5 32.601562 17.5 C 31.9375 17.5 31.398438 16.960938 31.398438 16.300781 C 31.398438 15.636719 31.9375 15.101562 32.601562 15.101562 C 33.261719 15.101562 33.800781 15.636719 33.800781 16.300781 Z M 33.800781 16.300781 "/>
<path style=" stroke:none;fill-rule:nonzero;fill:rgb(81.176472%,84.705883%,86.274511%);fill-opacity:1;" d="M 31.398438 16.300781 C 31.398438 16.960938 30.863281 17.5 30.199219 17.5 C 29.539062 17.5 29 16.960938 29 16.300781 C 29 15.636719 29.539062 15.101562 30.199219 15.101562 C 30.863281 15.101562 31.398438 15.636719 31.398438 16.300781 Z M 31.398438 16.300781 "/>
<path style=" stroke:none;fill-rule:nonzero;fill:rgb(81.176472%,84.705883%,86.274511%);fill-opacity:1;" d="M 29 16.300781 C 29 16.960938 28.460938 17.5 27.800781 17.5 C 27.136719 17.5 26.601562 16.960938 26.601562 16.300781 C 26.601562 15.636719 27.136719 15.101562 27.800781 15.101562 C 28.460938 15.101562 29 15.636719 29 16.300781 Z M 29 16.300781 "/>
<path style=" stroke:none;fill-rule:nonzero;fill:rgb(81.176472%,84.705883%,86.274511%);fill-opacity:1;" d="M 33.800781 18.699219 C 33.800781 19.363281 33.261719 19.898438 32.601562 19.898438 C 31.9375 19.898438 31.398438 19.363281 31.398438 18.699219 C 31.398438 18.039062 31.9375 17.5 32.601562 17.5 C 33.261719 17.5 33.800781 18.039062 33.800781 18.699219 Z M 33.800781 18.699219 "/>
<path style=" stroke:none;fill-rule:nonzero;fill:rgb(81.176472%,84.705883%,86.274511%);fill-opacity:1;" d="M 17 18.75 C 17 19.414062 16.460938 19.949219 15.800781 19.949219 C 15.136719 19.949219 14.601562 19.414062 14.601562 18.75 C 14.601562 18.085938 15.136719 17.550781 15.800781 17.550781 C 16.460938 17.550781 17 18.085938 17 18.75 Z M 17 18.75 "/>
<path style=" stroke:none;fill-rule:nonzero;fill:rgb(81.176472%,84.705883%,86.274511%);fill-opacity:1;" d="M 17 16.347656 C 17 17.011719 16.460938 17.550781 15.800781 17.550781 C 15.136719 17.550781 14.601562 17.011719 14.601562 16.347656 C 14.601562 15.6875 15.136719 15.148438 15.800781 15.148438 C 16.460938 15.148438 17 15.6875 17 16.347656 Z M 17 16.347656 "/>
<path style=" stroke:none;fill-rule:nonzero;fill:rgb(81.176472%,84.705883%,86.274511%);fill-opacity:1;" d="M 19.398438 16.347656 C 19.398438 17.011719 18.863281 17.550781 18.199219 17.550781 C 17.539062 17.550781 17 17.011719 17 16.347656 C 17 15.6875 17.539062 15.148438 18.199219 15.148438 C 18.863281 15.148438 19.398438 15.6875 19.398438 16.347656 Z M 19.398438 16.347656 "/>
<path style=" stroke:none;fill-rule:nonzero;fill:rgb(81.176472%,84.705883%,86.274511%);fill-opacity:1;" d="M 21.800781 16.347656 C 21.800781 17.011719 21.261719 17.550781 20.601562 17.550781 C 19.9375 17.550781 19.398438 17.011719 19.398438 16.347656 C 19.398438 15.6875 19.9375 15.148438 20.601562 15.148438 C 21.261719 15.148438 21.800781 15.6875 21.800781 16.347656 Z M 21.800781 16.347656 "/>
<path style=" stroke:none;fill-rule:nonzero;fill:rgb(81.176472%,84.705883%,86.274511%);fill-opacity:1;" d="M 24.199219 16.347656 C 24.199219 17.011719 23.664062 17.550781 23 17.550781 C 22.335938 17.550781 21.800781 17.011719 21.800781 16.347656 C 21.800781 15.6875 22.335938 15.148438 23 15.148438 C 23.664062 15.148438 24.199219 15.6875 24.199219 16.347656 Z M 24.199219 16.347656 "/>
<path style=" stroke:none;fill-rule:nonzero;fill:rgb(81.176472%,84.705883%,86.274511%);fill-opacity:1;" d="M 26.601562 16.300781 C 26.601562 16.960938 26.0625 17.5 25.398438 17.5 C 24.738281 17.5 24.199219 16.960938 24.199219 16.300781 C 24.199219 15.636719 24.738281 15.101562 25.398438 15.101562 C 26.0625 15.101562 26.601562 15.636719 26.601562 16.300781 Z M 26.601562 16.300781 "/>
<path style=" stroke:none;fill-rule:nonzero;fill:rgb(81.176472%,84.705883%,86.274511%);fill-opacity:1;" d="M 33.800781 21.148438 C 33.800781 21.8125 33.261719 22.347656 32.601562 22.347656 C 31.9375 22.347656 31.398438 21.8125 31.398438 21.148438 C 31.398438 20.488281 31.9375 19.949219 32.601562 19.949219 C 33.261719 19.949219 33.800781 20.488281 33.800781 21.148438 Z M 33.800781 21.148438 "/>
<path style=" stroke:none;fill-rule:nonzero;fill:rgb(81.176472%,84.705883%,86.274511%);fill-opacity:1;" d="M 31.398438 21.148438 C 31.398438 21.8125 30.863281 22.347656 30.199219 22.347656 C 29.539062 22.347656 29 21.8125 29 21.148438 C 29 20.488281 29.539062 19.949219 30.199219 19.949219 C 30.863281 19.949219 31.398438 20.488281 31.398438 21.148438 Z M 31.398438 21.148438 "/>
<path style=" stroke:none;fill-rule:nonzero;fill:rgb(81.176472%,84.705883%,86.274511%);fill-opacity:1;" d="M 29 21.148438 C 29 21.8125 28.460938 22.347656 27.800781 22.347656 C 27.136719 22.347656 26.601562 21.8125 26.601562 21.148438 C 26.601562 20.488281 27.136719 19.949219 27.800781 19.949219 C 28.460938 19.949219 29 20.488281 29 21.148438 Z M 29 21.148438 "/>
<path style=" stroke:none;fill-rule:nonzero;fill:rgb(81.176472%,84.705883%,86.274511%);fill-opacity:1;" d="M 17 21.148438 C 17 21.8125 16.460938 22.347656 15.800781 22.347656 C 15.136719 22.347656 14.601562 21.8125 14.601562 21.148438 C 14.601562 20.488281 15.136719 19.949219 15.800781 19.949219 C 16.460938 19.949219 17 20.488281 17 21.148438 Z M 17 21.148438 "/>
<path style=" stroke:none;fill-rule:nonzero;fill:rgb(81.176472%,84.705883%,86.274511%);fill-opacity:1;" d="M 19.398438 21.148438 C 19.398438 21.8125 18.863281 22.347656 18.199219 22.347656 C 17.539062 22.347656 17 21.8125 17 21.148438 C 17 20.488281 17.539062 19.949219 18.199219 19.949219 C 18.863281 19.949219 19.398438 20.488281 19.398438 21.148438 Z M 19.398438 21.148438 "/>
<path style=" stroke:none;fill-rule:nonzero;fill:rgb(81.176472%,84.705883%,86.274511%);fill-opacity:1;" d="M 21.800781 21.148438 C 21.800781 21.8125 21.261719 22.347656 20.601562 22.347656 C 19.9375 22.347656 19.398438 21.8125 19.398438 21.148438 C 19.398438 20.488281 19.9375 19.949219 20.601562 19.949219 C 21.261719 19.949219 21.800781 20.488281 21.800781 21.148438 Z M 21.800781 21.148438 "/>
<path style=" stroke:none;fill-rule:nonzero;fill:rgb(81.176472%,84.705883%,86.274511%);fill-opacity:1;" d="M 24.199219 21.148438 C 24.199219 21.8125 23.664062 22.347656 23 22.347656 C 22.335938 22.347656 21.800781 21.8125 21.800781 21.148438 C 21.800781 20.488281 22.335938 19.949219 23 19.949219 C 23.664062 19.949219 24.199219 20.488281 24.199219 21.148438 Z M 24.199219 21.148438 "/>
<path style=" stroke:none;fill-rule:nonzero;fill:rgb(81.176472%,84.705883%,86.274511%);fill-opacity:1;" d="M 26.601562 21.148438 C 26.601562 21.8125 26.0625 22.347656 25.398438 22.347656 C 24.738281 22.347656 24.199219 21.8125 24.199219 21.148438 C 24.199219 20.488281 24.738281 19.949219 25.398438 19.949219 C 26.0625 19.949219 26.601562 20.488281 26.601562 21.148438 Z M 26.601562 21.148438 "/>
<path style=" stroke:none;fill-rule:nonzero;fill:rgb(71.764708%,10.980392%,10.980392%);fill-opacity:1;" d="M 29.800781 11.003906 C 29.800781 11.003906 25.796875 11.902344 25 10.300781 C 25 10.300781 25.488281 12.9375 30.46875 12.671875 C 30.269531 12.125 29.800781 11.003906 29.800781 11.003906 Z M 29.800781 11.003906 "/>
<path style=" stroke:none;fill-rule:nonzero;fill:rgb(4.313726%,25.882354%,5.098039%);fill-opacity:1;" d="M 26.601562 30.699219 C 26.601562 31.363281 25.523438 31.898438 24.199219 31.898438 C 22.875 31.898438 21.800781 31.363281 21.800781 30.699219 C 21.800781 30.039062 22.875 29.5 24.199219 29.5 C 25.523438 29.5 26.601562 30.039062 26.601562 30.699219 Z M 26.601562 30.699219 "/>
<path style=" stroke:none;fill-rule:nonzero;fill:rgb(81.176472%,84.705883%,86.274511%);fill-opacity:1;" d="M 31.398438 27.101562 C 31.398438 28.425781 30.324219 29.5 29 29.5 C 27.675781 29.5 26.601562 28.425781 26.601562 27.101562 C 26.601562 25.773438 27.675781 24.699219 29 24.699219 C 30.324219 24.699219 31.398438 25.773438 31.398438 27.101562 Z M 31.398438 27.101562 "/>
<path style=" stroke:none;fill-rule:nonzero;fill:rgb(81.176472%,84.705883%,86.274511%);fill-opacity:1;" d="M 21.800781 27.101562 C 21.800781 28.425781 20.726562 29.5 19.398438 29.5 C 18.074219 29.5 17 28.425781 17 27.101562 C 17 25.773438 18.074219 24.699219 19.398438 24.699219 C 20.726562 24.699219 21.800781 25.773438 21.800781 27.101562 Z M 21.800781 27.101562 "/>
<path style=" stroke:none;fill-rule:nonzero;fill:rgb(4.313726%,25.882354%,5.098039%);fill-opacity:1;" d="M 29 27.101562 C 29 27.542969 28.640625 27.898438 28.199219 27.898438 C 27.757812 27.898438 27.398438 27.542969 27.398438 27.101562 C 27.398438 26.65625 27.757812 26.300781 28.199219 26.300781 C 28.640625 26.300781 29 26.65625 29 27.101562 Z M 29 27.101562 "/>
<path style=" stroke:none;fill-rule:nonzero;fill:rgb(4.313726%,25.882354%,5.098039%);fill-opacity:1;" d="M 21 27.101562 C 21 27.542969 20.640625 27.898438 20.199219 27.898438 C 19.757812 27.898438 19.398438 27.542969 19.398438 27.101562 C 19.398438 26.65625 19.757812 26.300781 20.199219 26.300781 C 20.640625 26.300781 21 26.65625 21 27.101562 Z M 21 27.101562 "/>
<path style=" stroke:none;fill-rule:nonzero;fill:rgb(4.313726%,25.882354%,5.098039%);fill-opacity:1;" d="M 31.398438 24.699219 C 27.753906 24.699219 27.398438 28.699219 25.800781 28.699219 C 24.507812 28.699219 24.199219 27.101562 24.199219 27.101562 C 24.199219 27.101562 25 27.898438 25.800781 27.101562 C 26.398438 26.5 27.453125 24.296875 28.734375 24.011719 C 30.609375 23.597656 31.398438 24.699219 31.398438 24.699219 Z M 31.398438 24.699219 "/>
<path style=" stroke:none;fill-rule:nonzero;fill:rgb(4.313726%,25.882354%,5.098039%);fill-opacity:1;" d="M 17 24.699219 C 20.644531 24.699219 21 28.699219 22.601562 28.699219 C 23.882812 28.699219 24.199219 27.101562 24.199219 27.101562 C 24.199219 27.101562 23.398438 27.898438 22.601562 27.101562 C 22 26.5 20.945312 24.28125 19.667969 24 C 17.789062 23.585938 17 24.699219 17 24.699219 Z M 17 24.699219 "/>
<path style=" stroke:none;fill-rule:nonzero;fill:rgb(48.627451%,70.19608%,25.882354%);fill-opacity:1;" d="M 36.199219 30.699219 C 36.199219 32.6875 34.589844 34.300781 32.601562 34.300781 C 30.613281 34.300781 29 32.6875 29 30.699219 C 29 28.710938 30.613281 27.101562 32.601562 27.101562 C 34.589844 27.101562 36.199219 28.710938 36.199219 30.699219 Z M 36.199219 30.699219 "/>
<path style=" stroke:none;fill-rule:nonzero;fill:rgb(4.313726%,25.882354%,5.098039%);fill-opacity:1;" d="M 34.601562 28.699219 C 33.714844 28.699219 33 29.414062 33 30.300781 L 36.199219 30.300781 C 36.199219 29.414062 35.484375 28.699219 34.601562 28.699219 Z M 34.601562 28.699219 "/>
<path style=" stroke:none;fill-rule:nonzero;fill:rgb(48.627451%,70.19608%,25.882354%);fill-opacity:1;" d="M 19.398438 30.699219 C 19.398438 32.6875 17.789062 34.300781 15.800781 34.300781 C 13.8125 34.300781 12.199219 32.6875 12.199219 30.699219 C 12.199219 28.710938 13.8125 27.101562 15.800781 27.101562 C 17.789062 27.101562 19.398438 28.710938 19.398438 30.699219 Z M 19.398438 30.699219 "/>
<path style=" stroke:none;fill-rule:nonzero;fill:rgb(4.313726%,25.882354%,5.098039%);fill-opacity:1;" d="M 13.800781 28.699219 C 12.914062 28.699219 12.199219 29.414062 12.199219 30.300781 L 15.398438 30.300781 C 15.398438 29.414062 14.683594 28.699219 13.800781 28.699219 Z M 13.800781 28.699219 "/>
<path style=" stroke:none;fill-rule:nonzero;fill:rgb(4.313726%,25.882354%,5.098039%);fill-opacity:1;" d="M 24.199219 39.195312 L 19.042969 36.613281 C 12.148438 33.167969 12.984375 29.460938 13.023438 29.304688 L 14.574219 29.695312 C 14.574219 29.699219 14.125 32.367188 19.757812 35.183594 L 24.199219 37.40625 L 28.640625 35.183594 C 34.273438 32.367188 33.824219 29.703125 33.820312 29.675781 L 35.375 29.304688 C 35.414062 29.460938 36.253906 33.167969 29.359375 36.617188 Z M 24.199219 39.195312 "/>
</g>
</svg>
