<?xml version="1.0" encoding="UTF-8"?>
<svg xmlns="http://www.w3.org/2000/svg" xmlns:xlink="http://www.w3.org/1999/xlink" viewBox="0 0 48 48" width="48px" height="48px">
<g id="surface148319407">
<path style=" stroke:none;fill-rule:nonzero;fill:rgb(80.000001%,80.000001%,80.000001%);fill-opacity:1;" d="M 24.140625 48.140625 C 10.882812 48.140625 0.140625 37.394531 0.140625 24.140625 C 0.140625 10.882812 10.882812 0.140625 24.140625 0.140625 C 37.394531 0.140625 48.140625 10.882812 48.140625 24.140625 C 48.140625 37.394531 37.394531 48.140625 24.140625 48.140625 Z M 24.140625 48.140625 "/>
<path style=" stroke:none;fill-rule:nonzero;fill:rgb(95.686275%,31.764707%,11.764706%);fill-opacity:1;" d="M 34.5 22.398438 C 30.433594 27.332031 35.300781 40.800781 39.300781 40.800781 L 29.699219 40.800781 C 25.28125 40.800781 19.300781 19.617188 19.300781 15.199219 C 19.300781 10.78125 22.882812 7.199219 27.300781 7.199219 C 36.101562 7.199219 38.125 18 34.5 22.398438 Z M 34.5 22.398438 "/>
<path style=" stroke:none;fill-rule:nonzero;fill:rgb(100%,43.921569%,26.274511%);fill-opacity:1;" d="M 37.699219 19.199219 C 37.699219 19.199219 36.898438 22.398438 38.5 25.601562 C 36.898438 27.199219 36.101562 29.601562 36.898438 31.199219 C 36.898438 31.199219 34.226562 31.941406 30.898438 29.199219 L 32.351562 23.199219 C 32.351562 23.199219 35.300781 22.398438 37.699219 19.199219 Z M 37.699219 19.199219 "/>
<path style=" stroke:none;fill-rule:nonzero;fill:rgb(30.19608%,81.568629%,88.235295%);fill-opacity:1;" d="M 31.929688 22.417969 C 32.382812 22.371094 32.960938 22.21875 33.46875 22.035156 C 33.988281 21.851562 34.507812 21.625 35 21.34375 C 35.992188 20.796875 36.902344 20.066406 37.699219 19.199219 C 37.121094 20.222656 36.371094 21.175781 35.46875 21.996094 C 35.019531 22.40625 34.523438 22.777344 34 23.113281 C 33.460938 23.449219 32.949219 23.738281 32.269531 23.980469 Z M 31.929688 22.417969 "/>
<path style=" stroke:none;fill-rule:nonzero;fill:rgb(30.19608%,81.568629%,88.235295%);fill-opacity:1;" d="M 32.257812 25.613281 C 32.710938 25.765625 33.253906 25.890625 33.765625 25.980469 C 34.289062 26.074219 34.816406 26.136719 35.347656 26.160156 C 36.410156 26.199219 37.5 26.085938 38.5 25.597656 C 37.644531 26.3125 36.535156 26.726562 35.417969 26.957031 C 34.855469 27.070312 34.28125 27.140625 33.707031 27.179688 C 33.125 27.214844 32.566406 27.230469 31.941406 27.183594 Z M 32.257812 25.613281 "/>
<path style=" stroke:none;fill-rule:nonzero;fill:rgb(30.19608%,81.568629%,88.235295%);fill-opacity:1;" d="M 31.867188 29.035156 C 32.09375 29.339844 32.464844 29.695312 32.820312 29.976562 C 33.1875 30.265625 33.59375 30.515625 34.023438 30.71875 C 34.453125 30.925781 34.917969 31.074219 35.402344 31.152344 C 35.890625 31.253906 36.390625 31.238281 36.898438 31.199219 C 36.421875 31.367188 35.917969 31.519531 35.390625 31.554688 C 34.863281 31.605469 34.320312 31.582031 33.789062 31.484375 C 33.253906 31.390625 32.726562 31.230469 32.21875 31.015625 C 31.703125 30.789062 31.242188 30.550781 30.734375 30.164062 Z M 31.867188 29.035156 "/>
<path style=" stroke:none;fill-rule:nonzero;fill:rgb(100%,43.921569%,26.274511%);fill-opacity:1;" d="M 10.5 19.199219 C 10.5 19.199219 11.300781 22.398438 9.699219 25.601562 C 11.300781 27.199219 12.101562 29.601562 11.300781 31.199219 C 11.300781 31.199219 14.3125 31.75 17.300781 29.199219 L 15.847656 23.199219 C 15.847656 23.199219 12.898438 22.398438 10.5 19.199219 Z M 10.5 19.199219 "/>
<path style=" stroke:none;fill-rule:nonzero;fill:rgb(30.19608%,81.568629%,88.235295%);fill-opacity:1;" d="M 15.929688 23.980469 C 15.25 23.738281 14.738281 23.449219 14.199219 23.113281 C 13.675781 22.777344 13.183594 22.40625 12.734375 21.996094 C 11.828125 21.175781 11.078125 20.222656 10.5 19.199219 C 11.296875 20.066406 12.210938 20.796875 13.199219 21.34375 C 13.691406 21.625 14.210938 21.851562 14.730469 22.039062 C 15.242188 22.21875 15.816406 22.371094 16.269531 22.417969 Z M 15.929688 23.980469 "/>
<path style=" stroke:none;fill-rule:nonzero;fill:rgb(30.19608%,81.568629%,88.235295%);fill-opacity:1;" d="M 16.257812 27.183594 C 15.632812 27.230469 15.078125 27.214844 14.492188 27.179688 C 13.917969 27.140625 13.347656 27.070312 12.78125 26.957031 C 11.664062 26.726562 10.554688 26.316406 9.699219 25.601562 C 10.703125 26.085938 11.792969 26.199219 12.851562 26.160156 C 13.382812 26.136719 13.914062 26.074219 14.433594 25.980469 C 14.945312 25.890625 15.488281 25.765625 15.945312 25.617188 Z M 16.257812 27.183594 "/>
<path style=" stroke:none;fill-rule:nonzero;fill:rgb(30.19608%,81.568629%,88.235295%);fill-opacity:1;" d="M 17.464844 30.164062 C 16.957031 30.550781 16.496094 30.785156 15.980469 31.015625 C 15.472656 31.230469 14.945312 31.390625 14.410156 31.484375 C 13.878906 31.582031 13.335938 31.605469 12.808594 31.554688 C 12.28125 31.519531 11.777344 31.367188 11.300781 31.199219 C 11.808594 31.238281 12.3125 31.253906 12.796875 31.152344 C 13.28125 31.070312 13.746094 30.925781 14.175781 30.71875 C 14.609375 30.515625 15.011719 30.265625 15.378906 29.976562 C 15.734375 29.695312 16.105469 29.339844 16.335938 29.035156 Z M 17.464844 30.164062 "/>
<path style=" stroke:none;fill-rule:nonzero;fill:rgb(0%,67.450982%,75.686276%);fill-opacity:1;" d="M 24.101562 34.398438 L 18.503906 34.398438 L 18.503906 40.796875 L 29.703125 40.796875 L 29.703125 34.398438 Z M 24.101562 34.398438 "/>
<path style=" stroke:none;fill-rule:nonzero;fill:rgb(30.19608%,81.568629%,88.235295%);fill-opacity:1;" d="M 24.101562 11.199219 C 17.699219 11.199219 15.300781 16.382812 15.300781 20.800781 L 16.101562 29.363281 C 16.101562 32.019531 17.394531 34.507812 19.574219 36.03125 L 21.976562 37.710938 C 23.25 38.605469 24.949219 38.605469 26.226562 37.710938 L 28.625 36.03125 C 30.804688 34.507812 32.101562 32.019531 32.101562 29.359375 L 32.898438 20.800781 C 32.898438 16.382812 30.5 11.199219 24.101562 11.199219 Z M 24.101562 11.199219 "/>
<path style=" stroke:none;fill-rule:nonzero;fill:rgb(100%,43.921569%,26.274511%);fill-opacity:1;" d="M 16.101562 21.601562 C 16.101562 21.601562 16.101562 23.199219 16.898438 24.238281 C 17.699219 25.601562 20.898438 24.800781 20.898438 24.800781 C 20.898438 24.800781 23.300781 24.800781 23.300781 23.199219 C 20.898438 22.398438 20.101562 20.800781 18.5 20.800781 C 16.898438 20.800781 16.101562 21.601562 16.101562 21.601562 Z M 16.101562 21.601562 "/>
<path style=" stroke:none;fill-rule:nonzero;fill:rgb(100%,93.333334%,34.509805%);fill-opacity:1;" d="M 21.703125 25.597656 C 21.703125 25.597656 21.222656 23.195312 19.144531 23.195312 C 17.382812 23.195312 16.902344 24.238281 16.902344 24.238281 C 16.902344 24.238281 17.625 25.601562 18.902344 25.601562 C 20.183594 25.601562 20.101562 25.597656 21.703125 25.597656 Z M 21.703125 25.597656 "/>
<path style=" stroke:none;fill-rule:nonzero;fill:rgb(25.882354%,25.882354%,25.882354%);fill-opacity:1;" d="M 18.507812 24.398438 C 18.507812 25.035156 18.878906 25.597656 19.304688 25.597656 C 19.726562 25.597656 20.101562 25.035156 20.101562 24.398438 C 20.101562 24.238281 20.101562 23.996094 19.992188 23.835938 C 19.78125 23.515625 19.515625 23.277344 19.144531 23.195312 C 18.773438 23.355469 18.507812 23.835938 18.507812 24.398438 Z M 18.507812 24.398438 "/>
<path style=" stroke:none;fill-rule:nonzero;fill:rgb(25.882354%,25.882354%,25.882354%);fill-opacity:1;" d="M 21.703125 25.597656 C 21.703125 25.597656 21.222656 23.195312 19.144531 23.195312 C 17.382812 23.195312 16.902344 24.238281 16.902344 24.238281 C 16.902344 24.238281 16.902344 23.996094 19.304688 23.996094 C 20.582031 23.996094 21.703125 25.597656 21.703125 25.597656 Z M 21.703125 25.597656 "/>
<path style=" stroke:none;fill-rule:nonzero;fill:rgb(25.882354%,25.882354%,25.882354%);fill-opacity:1;" d="M 23.304688 23.195312 C 21.144531 22.15625 20.101562 19.996094 18.503906 19.996094 C 16.902344 19.996094 16.101562 21.601562 16.101562 21.601562 C 16.101562 21.601562 17.699219 20.800781 19.300781 21.601562 C 20.589844 22.242188 21.542969 23.195312 23.304688 23.195312 Z M 23.304688 23.195312 "/>
<path style=" stroke:none;fill-rule:nonzero;fill:rgb(100%,43.921569%,26.274511%);fill-opacity:1;" d="M 32.101562 21.601562 C 32.101562 21.601562 32.101562 23.199219 31.300781 24.238281 C 30.5 25.601562 27.300781 24.800781 27.300781 24.800781 C 27.300781 24.800781 24.898438 24.800781 24.898438 23.199219 C 27.300781 22.398438 28.101562 20.800781 29.699219 20.800781 C 31.300781 20.800781 32.101562 21.601562 32.101562 21.601562 Z M 32.101562 21.601562 "/>
<path style=" stroke:none;fill-rule:nonzero;fill:rgb(100%,93.333334%,34.509805%);fill-opacity:1;" d="M 29.296875 25.601562 C 30.578125 25.601562 31.296875 24.238281 31.296875 24.238281 C 31.296875 24.238281 30.816406 23.195312 29.058594 23.195312 C 26.976562 23.195312 26.496094 25.597656 26.496094 25.597656 C 28.097656 25.597656 28.015625 25.601562 29.296875 25.601562 Z M 29.296875 25.601562 "/>
<path style=" stroke:none;fill-rule:nonzero;fill:rgb(25.882354%,25.882354%,25.882354%);fill-opacity:1;" d="M 29.054688 23.195312 C 28.683594 23.277344 28.417969 23.515625 28.207031 23.835938 C 28.101562 23.996094 28.101562 24.238281 28.101562 24.398438 C 28.101562 25.035156 28.472656 25.597656 28.898438 25.597656 C 29.320312 25.597656 29.695312 25.035156 29.695312 24.398438 C 29.695312 23.835938 29.429688 23.355469 29.054688 23.195312 Z M 29.054688 23.195312 "/>
<path style=" stroke:none;fill-rule:nonzero;fill:rgb(25.882354%,25.882354%,25.882354%);fill-opacity:1;" d="M 28.898438 23.996094 C 31.296875 23.996094 31.296875 24.238281 31.296875 24.238281 C 31.296875 24.238281 30.816406 23.195312 29.058594 23.195312 C 26.976562 23.195312 26.496094 25.597656 26.496094 25.597656 C 26.496094 25.597656 27.617188 23.996094 28.898438 23.996094 Z M 28.898438 23.996094 "/>
<path style=" stroke:none;fill-rule:nonzero;fill:rgb(25.882354%,25.882354%,25.882354%);fill-opacity:1;" d="M 28.898438 21.601562 C 30.5 20.800781 32.101562 21.601562 32.101562 21.601562 C 32.101562 21.601562 31.296875 19.996094 29.695312 19.996094 C 28.097656 19.996094 27.058594 22.15625 24.898438 23.195312 C 26.65625 23.195312 27.613281 22.242188 28.898438 21.601562 Z M 28.898438 21.601562 "/>
<path style=" stroke:none;fill-rule:nonzero;fill:rgb(100%,93.333334%,34.509805%);fill-opacity:1;" d="M 24.101562 32 C 22.496094 32.003906 18.503906 30.398438 18.503906 30.398438 C 18.503906 30.398438 21.699219 34.398438 24.101562 34.796875 C 26.5 34.398438 29.703125 30.398438 29.703125 30.398438 C 29.703125 30.398438 25.695312 31.996094 24.101562 32 Z M 24.101562 32 "/>
<path style=" stroke:none;fill-rule:nonzero;fill:rgb(0%,67.450982%,75.686276%);fill-opacity:1;" d="M 18.5 30.398438 C 18.503906 30.402344 18.511719 30.410156 18.515625 30.414062 C 18.515625 30.414062 18.511719 30.410156 18.511719 30.410156 C 18.507812 30.40625 18.503906 30.402344 18.5 30.398438 Z M 18.5 30.398438 "/>
<path style=" stroke:none;fill-rule:nonzero;fill:rgb(0%,67.450982%,75.686276%);fill-opacity:1;" d="M 24.101562 31.199219 C 22.492188 31.199219 18.503906 30.398438 18.503906 30.398438 C 18.503906 30.398438 18.511719 30.40625 18.511719 30.410156 C 19.332031 31.207031 22.507812 32 24.105469 31.996094 C 25.699219 31.992188 28.898438 31.199219 29.699219 30.398438 C 28.578125 31.449219 25.699219 34.394531 24.101562 34.398438 C 22.507812 34.398438 19.644531 31.472656 18.515625 30.414062 C 18.640625 30.601562 21.753906 35.195312 24.101562 35.195312 C 26.503906 35.195312 29.703125 30.398438 29.703125 30.398438 C 29.703125 30.398438 25.695312 31.195312 24.101562 31.199219 Z M 24.101562 31.199219 "/>
<path style=" stroke:none;fill-rule:nonzero;fill:rgb(25.882354%,25.882354%,25.882354%);fill-opacity:1;" d="M 24.898438 23.199219 C 24.898438 23.199219 29.324219 21.035156 31.910156 22.917969 C 31.488281 25.082031 30.5 27.199219 28.898438 27.199219 C 27.300781 27.199219 24.898438 25.601562 24.898438 23.199219 Z M 24.898438 23.199219 "/>
<path style=" stroke:none;fill-rule:nonzero;fill:rgb(25.882354%,25.882354%,25.882354%);fill-opacity:1;" d="M 26.386719 22.792969 L 25.011719 23.609375 C 22.925781 20.136719 18.261719 15.320312 17.300781 14.34375 C 17.621094 13.921875 17.988281 13.519531 18.394531 13.160156 C 19.253906 14.03125 24.132812 19.039062 26.386719 22.792969 Z M 26.386719 22.792969 "/>
<path style=" stroke:none;fill-rule:nonzero;fill:rgb(25.882354%,25.882354%,25.882354%);fill-opacity:1;" d="M 32.898438 20.800781 L 32.765625 22.257812 L 31.027344 23.800781 L 29.972656 22.601562 L 32.867188 20.023438 C 32.890625 20.28125 32.898438 20.542969 32.898438 20.800781 Z M 32.898438 20.800781 "/>
</g>
</svg>
