<?xml version="1.0" encoding="UTF-8"?>
<svg xmlns="http://www.w3.org/2000/svg" xmlns:xlink="http://www.w3.org/1999/xlink" viewBox="0 0 48 48" width="48px" height="48px">
<g id="surface38472211">
<path style=" stroke:none;fill-rule:nonzero;fill:rgb(49.803922%,74.509805%,96.078432%);fill-opacity:1;" d="M 24.140625 48.140625 C 10.882812 48.140625 0.140625 37.394531 0.140625 24.140625 C 0.140625 10.882812 10.882812 0.140625 24.140625 0.140625 C 37.394531 0.140625 48.140625 10.882812 48.140625 24.140625 C 48.140625 37.394531 37.394531 48.140625 24.140625 48.140625 Z M 24.140625 48.140625 "/>
<path style=" stroke:none;fill-rule:nonzero;fill:rgb(21.568628%,27.843139%,30.980393%);fill-opacity:1;" d="M 21.644531 9.644531 L 21.601562 9.601562 C 21.601562 9.601562 16.800781 12 16.800781 18.398438 L 20 18.398438 C 20 14.0625 21.914062 12.128906 22.78125 11.476562 C 22.183594 11.050781 21.765625 10.398438 21.644531 9.644531 Z M 21.644531 9.644531 "/>
<path style=" stroke:none;fill-rule:nonzero;fill:rgb(87.843138%,87.843138%,87.843138%);fill-opacity:1;" d="M 28 9.199219 C 28 11.1875 26.386719 12.800781 24.398438 12.800781 C 22.410156 12.800781 20.800781 11.1875 20.800781 9.199219 C 20.800781 7.210938 22.410156 5.601562 24.398438 5.601562 C 26.386719 5.601562 28 7.210938 28 9.199219 Z M 28 9.199219 "/>
<path style=" stroke:none;fill-rule:nonzero;fill:rgb(12.941177%,12.941177%,12.941177%);fill-opacity:1;" d="M 26.398438 8.398438 C 26.398438 9.0625 25.863281 9.601562 25.199219 9.601562 C 24.539062 9.601562 24 9.0625 24 8.398438 C 24 7.738281 24.539062 7.199219 25.199219 7.199219 C 25.863281 7.199219 26.398438 7.738281 26.398438 8.398438 Z M 26.398438 8.398438 "/>
<path style=" stroke:none;fill-rule:nonzero;fill:rgb(21.568628%,27.843139%,30.980393%);fill-opacity:1;" d="M 22.398438 21.601562 C 22.398438 23.808594 20.609375 25.601562 18.398438 25.601562 C 16.191406 25.601562 14.398438 23.808594 14.398438 21.601562 C 14.398438 19.390625 16.191406 17.601562 18.398438 17.601562 C 20.609375 17.601562 22.398438 19.390625 22.398438 21.601562 Z M 22.398438 21.601562 "/>
<path style=" stroke:none;fill-rule:nonzero;fill:rgb(21.568628%,27.843139%,30.980393%);fill-opacity:1;" d="M 37.601562 24 C 37.601562 22.234375 36.167969 20.800781 34.398438 20.800781 C 33.71875 20.800781 32.734375 20.800781 31.78125 20.800781 C 29.3125 19.804688 25.804688 19.199219 20.800781 19.199219 C 11.199219 19.199219 6.398438 24.476562 6.398438 30 C 6.398438 35.523438 10.875 40 16.398438 40 C 20.273438 40 30.398438 40 30.398438 40 C 30.398438 40 37.601562 36 37.601562 31.199219 C 37.601562 29.445312 37.601562 24.707031 37.601562 24 Z M 37.601562 24 "/>
<path style=" stroke:none;fill-rule:nonzero;fill:rgb(93.333334%,93.333334%,93.333334%);fill-opacity:1;" d="M 40.800781 29.199219 C 40.800781 32.070312 38.472656 34.398438 35.601562 34.398438 C 32.726562 34.398438 30.398438 32.070312 30.398438 29.199219 C 30.398438 26.328125 32.726562 24 35.601562 24 C 38.472656 24 40.800781 26.328125 40.800781 29.199219 Z M 40.800781 29.199219 "/>
<path style=" stroke:none;fill-rule:nonzero;fill:rgb(12.941177%,12.941177%,12.941177%);fill-opacity:1;" d="M 38.398438 28.398438 C 38.398438 29.0625 37.863281 29.601562 37.199219 29.601562 C 36.539062 29.601562 36 29.0625 36 28.398438 C 36 27.738281 36.539062 27.199219 37.199219 27.199219 C 37.863281 27.199219 38.398438 27.738281 38.398438 28.398438 Z M 38.398438 28.398438 "/>
<path style=" stroke:none;fill-rule:nonzero;fill:rgb(93.333334%,93.333334%,93.333334%);fill-opacity:1;" d="M 23.199219 29.199219 C 23.199219 32.070312 20.871094 34.398438 18 34.398438 C 15.128906 34.398438 12.800781 32.070312 12.800781 29.199219 C 12.800781 26.328125 15.128906 24 18 24 C 20.871094 24 23.199219 26.328125 23.199219 29.199219 Z M 23.199219 29.199219 "/>
<path style=" stroke:none;fill-rule:nonzero;fill:rgb(12.941177%,12.941177%,12.941177%);fill-opacity:1;" d="M 20.800781 28.398438 C 20.800781 29.0625 20.261719 29.601562 19.601562 29.601562 C 18.9375 29.601562 18.398438 29.0625 18.398438 28.398438 C 18.398438 27.738281 18.9375 27.199219 19.601562 27.199219 C 20.261719 27.199219 20.800781 27.738281 20.800781 28.398438 Z M 20.800781 28.398438 "/>
<path style=" stroke:none;fill-rule:nonzero;fill:rgb(100%,80.000001%,50.196081%);fill-opacity:1;" d="M 33.957031 33.042969 C 34.238281 32.730469 34.398438 32.375 34.398438 32 C 34.398438 30.675781 32.429688 29.601562 30 29.601562 C 27.570312 29.601562 25.601562 30.675781 25.601562 32 C 25.601562 32.296875 25.703125 32.578125 25.882812 32.839844 C 17.601562 32.800781 12 34.699219 12 37.601562 C 12 40.800781 16.917969 42.398438 22 42.398438 C 26.355469 42.398438 34.117188 40.632812 36.242188 37.105469 C 39.492188 36.667969 41.601562 35.976562 41.601562 35.199219 C 41.601562 34.253906 38.476562 33.433594 33.957031 33.042969 Z M 33.957031 33.042969 "/>
<path style=" stroke:none;fill-rule:nonzero;fill:rgb(12.941177%,12.941177%,12.941177%);fill-opacity:1;" d="M 32.800781 32 C 32.800781 32.441406 31.546875 32.800781 30 32.800781 C 28.453125 32.800781 27.199219 32.441406 27.199219 32 C 27.199219 31.558594 28.453125 31.199219 30 31.199219 C 31.546875 31.199219 32.800781 31.558594 32.800781 32 Z M 32.800781 32 "/>
<path style=" stroke:none;fill-rule:nonzero;fill:rgb(100%,71.764708%,30.19608%);fill-opacity:1;" d="M 36.238281 37.105469 C 35.839844 37.769531 35.238281 38.375 34.488281 38.921875 C 32.503906 39.105469 30.289062 39.199219 28 39.199219 C 19.488281 39.199219 17.335938 38.457031 16.886719 38.230469 L 17.601562 36.800781 C 17.601562 36.800781 19.199219 37.601562 28 37.601562 C 31.097656 37.601562 33.953125 37.414062 36.238281 37.105469 Z M 36.238281 37.105469 "/>
<path style=" stroke:none;fill-rule:nonzero;fill:rgb(87.843138%,87.843138%,87.843138%);fill-opacity:1;" d="M 36.242188 37.105469 C 36.242188 37.105469 36.242188 37.105469 36.242188 37.101562 C 36.242188 37.101562 36.242188 37.105469 36.238281 37.105469 C 35.660156 37.183594 35.046875 37.253906 34.398438 37.316406 L 34.398438 39.996094 C 34.398438 39.996094 36.027344 38.8125 36.863281 37.015625 C 36.660156 37.046875 36.457031 37.078125 36.242188 37.105469 Z M 36.242188 37.105469 "/>
<path style=" stroke:none;fill-rule:nonzero;fill:rgb(87.843138%,87.843138%,87.843138%);fill-opacity:1;" d="M 19.992188 37.261719 C 21.082031 39.222656 23.199219 40.800781 23.199219 40.800781 L 23.199219 37.5 C 21.839844 37.4375 20.789062 37.351562 19.992188 37.261719 Z M 19.992188 37.261719 "/>
<path style=" stroke:none;fill-rule:nonzero;fill:rgb(100%,71.764708%,30.19608%);fill-opacity:1;" d="M 15.199219 39.199219 C 15.199219 39.199219 16.800781 38 17.601562 36 C 17.601562 36 18.398438 36.398438 18.398438 37.398438 C 18.398438 39.199219 15.199219 39.199219 15.199219 39.199219 Z M 15.199219 39.199219 "/>
</g>
</svg>
