<?xml version="1.0" encoding="UTF-8"?>
<svg xmlns="http://www.w3.org/2000/svg" xmlns:xlink="http://www.w3.org/1999/xlink" viewBox="0 0 48 48" width="48px" height="48px">
<g id="surface38509786">
<path style=" stroke:none;fill-rule:nonzero;fill:rgb(49.803922%,74.509805%,96.078432%);fill-opacity:1;" d="M 24.140625 48.140625 C 10.882812 48.140625 0.140625 37.394531 0.140625 24.140625 C 0.140625 10.882812 10.882812 0.140625 24.140625 0.140625 C 37.394531 0.140625 48.140625 10.882812 48.140625 24.140625 C 48.140625 37.394531 37.394531 48.140625 24.140625 48.140625 Z M 24.140625 48.140625 "/>
<path style=" stroke:none;fill-rule:nonzero;fill:rgb(69.01961%,74.509805%,77.254903%);fill-opacity:1;" d="M 36.800781 29.527344 C 36.800781 23.339844 31.070312 19.101562 24 19.101562 C 16.929688 19.101562 11.199219 23.339844 11.199219 29.527344 C 11.199219 35.710938 16.929688 41.5 24 41.5 C 31.070312 41.5 36.800781 35.710938 36.800781 29.527344 Z M 36.800781 29.527344 "/>
<path style=" stroke:none;fill-rule:nonzero;fill:rgb(47.058824%,56.470591%,61.176473%);fill-opacity:1;" d="M 36.648438 31.226562 C 36.484375 32.246094 36.160156 33.242188 35.699219 34.1875 L 24 30.6875 Z M 24 30.6875 L 19.777344 40.789062 C 18.617188 40.386719 17.523438 39.824219 16.546875 39.136719 Z M 31.453125 39.136719 C 30.476562 39.824219 29.382812 40.386719 28.222656 40.789062 L 24 30.6875 Z M 24 30.6875 L 12.300781 34.1875 C 11.839844 33.242188 11.515625 32.246094 11.351562 31.226562 Z M 24 30.6875 "/>
<path style=" stroke:none;fill-rule:nonzero;fill:rgb(90.196079%,31.764707%,0%);fill-opacity:1;" d="M 39.683594 21.652344 C 41.234375 21.113281 41.601562 18.082031 41.601562 18.082031 C 39.28125 19.21875 37.734375 18.082031 36.964844 15.941406 C 34.390625 8.804688 26.230469 9.519531 26.230469 9.519531 L 21.570312 9.519531 C 21.570312 9.519531 14.265625 8.804688 11.453125 15.941406 C 10.617188 18.082031 8.929688 19.21875 6.398438 18.082031 C 6.398438 18.082031 6.800781 21.113281 8.492188 21.652344 C 7.695312 22.09375 7.101562 21.652344 6.597656 21.378906 C 6.601562 25.933594 10.566406 29.5 14.832031 29.5 L 33.871094 29.5 C 37.78125 29.5 41.417969 25.933594 41.417969 21.378906 C 40.957031 21.652344 40.414062 22.09375 39.683594 21.652344 Z M 39.683594 21.652344 "/>
<path style=" stroke:none;fill-rule:nonzero;fill:rgb(93.725491%,42.352942%,0%);fill-opacity:1;" d="M 21.605469 14.363281 C 21.605469 14.363281 16.738281 9.929688 24.039062 5.5 C 24.039062 5.5 23.5 6.488281 24.585938 7.808594 C 24.832031 7.351562 25.585938 6.976562 25.585938 6.976562 C 25.585938 6.976562 25.863281 8.773438 26.472656 9.191406 C 29.71875 11.40625 26.722656 14.109375 26.722656 14.109375 C 26.722656 14.109375 25.585938 15.101562 23.984375 15.101562 C 22.382812 15.101562 21.605469 14.363281 21.605469 14.363281 Z M 21.605469 14.363281 "/>
<path style=" stroke:none;fill-rule:nonzero;fill:rgb(87.843138%,87.843138%,87.843138%);fill-opacity:1;" d="M 14.398438 18.390625 C 14.398438 15.625 16.230469 12.699219 19.199219 12.699219 C 21.257812 12.699219 22.777344 14.121094 24 14.121094 C 25.222656 14.121094 26.742188 12.699219 28.800781 12.699219 C 31.769531 12.699219 33.601562 15.625 33.601562 18.390625 C 33.601562 22.046875 32.914062 23.367188 32.0625 25.152344 C 31.382812 26.585938 32.0625 27.921875 32.0625 29.304688 C 32.0625 30.6875 30.945312 32.101562 30.527344 32.765625 C 29.375 34.597656 28.992188 38.300781 25.152344 38.300781 C 25.152344 38.300781 23.425781 38.300781 22.847656 38.300781 C 19.007812 38.300781 18.625 34.507812 17.472656 32.765625 C 17.039062 32.109375 15.9375 30.6875 15.9375 29.304688 C 15.9375 27.933594 16.617188 26.585938 15.9375 25.15625 C 15.085938 23.367188 14.398438 22.046875 14.398438 18.390625 Z M 14.398438 18.390625 "/>
<path style=" stroke:none;fill-rule:nonzero;fill:rgb(82.745099%,18.431373%,18.431373%);fill-opacity:1;" d="M 20.992188 33.269531 C 21.898438 34.398438 21.601562 36.699219 24 36.699219 C 26.398438 36.699219 26.101562 34.398438 27.007812 33.269531 C 24 34.300781 24 34.300781 20.992188 33.269531 Z M 20.992188 33.269531 "/>
<path style=" stroke:none;fill-rule:nonzero;fill:rgb(74.901962%,21.176471%,4.705882%);fill-opacity:1;" d="M 29.042969 29.433594 C 28.800781 29.003906 28.527344 28.515625 28.28125 27.773438 C 28.246094 27.671875 28.214844 27.53125 28.1875 27.367188 L 27.398438 27.5 C 27.433594 27.710938 27.476562 27.890625 27.519531 28.027344 C 27.789062 28.84375 28.097656 29.386719 28.34375 29.824219 C 28.621094 30.3125 28.800781 30.636719 28.800781 31.078125 C 28.800781 31.65625 28.394531 32 28 32 C 27.527344 32 27.015625 32.074219 26.578125 32.507812 C 26.25 32.828125 25.878906 33.097656 25.441406 33.234375 C 24.96875 33.378906 24.464844 33.5 24 33.5 C 23.535156 33.5 23.03125 33.378906 22.5625 33.234375 C 22.121094 33.101562 21.75 32.832031 21.425781 32.507812 C 20.984375 32.078125 20.472656 32 20 32 C 19.613281 32 19.199219 31.683594 19.199219 31.101562 C 19.199219 30.683594 19.375 30.378906 19.644531 29.910156 C 19.910156 29.453125 20.238281 28.882812 20.484375 28.011719 C 20.523438 27.875 20.558594 27.699219 20.589844 27.488281 L 19.800781 27.367188 C 19.773438 27.539062 19.746094 27.683594 19.714844 27.792969 C 19.496094 28.570312 19.207031 29.070312 18.953125 29.511719 C 18.65625 30.027344 18.398438 30.46875 18.398438 31.101562 C 18.398438 32.164062 19.214844 32.800781 20 32.800781 C 20.699219 32.800781 20.941406 33.234375 20.992188 33.269531 C 22.398438 34.300781 23.203125 34.5 24 34.5 C 24.800781 34.5 25.601562 34.300781 27.007812 33.269531 C 27.054688 33.234375 27.300781 32.800781 28 32.800781 C 28.785156 32.800781 29.601562 32.15625 29.601562 31.078125 C 29.601562 30.425781 29.339844 29.964844 29.042969 29.433594 Z M 29.042969 29.433594 "/>
<path style=" stroke:none;fill-rule:nonzero;fill:rgb(74.901962%,21.176471%,4.705882%);fill-opacity:1;" d="M 26.25 29.5 C 26.25 29.5 26.398438 29.929688 26.398438 30.1875 C 26.398438 30.785156 26 31.214844 25.5 31.214844 C 25.347656 31.214844 25.210938 31.167969 25.09375 31.097656 C 24.898438 31.570312 24.484375 31.898438 24 31.898438 C 23.515625 31.898438 23.101562 31.570312 22.90625 31.097656 C 22.789062 31.167969 22.652344 31.214844 22.5 31.214844 C 22 31.214844 21.601562 30.785156 21.601562 30.1875 C 21.601562 29.929688 21.75 29.5 21.75 29.5 C 21.75 29.5 22.050781 30.1875 22.800781 30.015625 C 23.175781 29.929688 23.625 30.1875 24 30.1875 C 24.375 30.1875 24.824219 29.929688 25.199219 30.015625 C 25.949219 30.1875 26.25 29.5 26.25 29.5 Z M 20 26.300781 L 20.199219 23.5 C 20.261719 22.566406 20.296875 21.636719 20.347656 20.699219 C 20.429688 21.628906 20.527344 22.566406 20.601562 23.5 L 20.800781 26.300781 Z M 27.199219 26.300781 L 27.398438 23.5 C 27.460938 22.566406 27.496094 21.636719 27.546875 20.699219 C 27.628906 21.628906 27.726562 22.566406 27.800781 23.5 L 28 26.300781 Z M 27.199219 26.300781 "/>
<path style=" stroke:none;fill-rule:nonzero;fill:rgb(12.941177%,12.941177%,12.941177%);fill-opacity:1;" d="M 30.390625 25.605469 C 29.070312 29.660156 25.601562 27.109375 25.601562 27.109375 C 25.953125 26.941406 26.320312 26.667969 26.65625 26.363281 C 27.496094 25.621094 28.183594 24.699219 28.183594 24.699219 C 28.71875 24.699219 29.128906 24.738281 29.441406 24.804688 C 30.535156 25.042969 30.390625 25.605469 30.390625 25.605469 Z M 17.785156 25.605469 C 19.253906 29.660156 23.109375 27.109375 23.109375 27.109375 C 22.71875 26.941406 22.3125 26.667969 21.9375 26.363281 C 21.003906 25.621094 20.238281 24.699219 20.238281 24.699219 C 19.644531 24.699219 19.191406 24.738281 18.84375 24.804688 C 17.625 25.042969 17.785156 25.605469 17.785156 25.605469 Z M 17.785156 25.605469 "/>
<path style=" stroke:none;fill-rule:nonzero;fill:rgb(98.039216%,98.039216%,98.039216%);fill-opacity:1;" d="M 28.902344 26.757812 C 27.488281 27.683594 26.703125 26.5 26.703125 26.5 C 26.703125 26.5 26.945312 26.261719 27.222656 25.988281 C 27.535156 25.691406 27.910156 25.363281 28.097656 25.300781 C 28.230469 25.253906 28.398438 25.234375 28.574219 25.253906 C 28.847656 25.261719 29.121094 25.339844 29.257812 25.453125 C 29.695312 25.804688 29.296875 26.5 28.902344 26.757812 Z M 19.441406 26.757812 C 21.011719 27.683594 21.886719 26.5 21.886719 26.5 C 21.886719 26.5 21.617188 26.261719 21.308594 25.988281 C 20.960938 25.691406 20.542969 25.363281 20.339844 25.300781 C 20.1875 25.253906 20 25.234375 19.804688 25.253906 C 19.503906 25.261719 19.199219 25.339844 19.046875 25.453125 C 18.558594 25.804688 19.003906 26.5 19.441406 26.757812 Z M 19.441406 26.757812 "/>
<path style=" stroke:none;fill-rule:nonzero;fill:rgb(50.980395%,46.666667%,9.019608%);fill-opacity:1;" d="M 28.800781 25.804688 C 28.800781 26.242188 28.441406 26.605469 28 26.605469 C 27.625 26.605469 27.304688 26.339844 27.222656 25.988281 C 27.535156 25.691406 27.910156 25.363281 28.097656 25.300781 C 28.230469 25.253906 28.398438 25.234375 28.574219 25.253906 C 28.710938 25.394531 28.800781 25.589844 28.800781 25.804688 Z M 19.554688 25.804688 C 19.554688 26.242188 19.957031 26.605469 20.445312 26.605469 C 20.863281 26.605469 21.21875 26.339844 21.304688 25.988281 C 20.960938 25.691406 20.542969 25.363281 20.335938 25.300781 C 20.1875 25.253906 20 25.234375 19.804688 25.253906 C 19.652344 25.394531 19.554688 25.589844 19.554688 25.804688 Z M 19.554688 25.804688 "/>
<path style=" stroke:none;fill-rule:nonzero;fill:rgb(12.941177%,12.941177%,12.941177%);fill-opacity:1;" d="M 24.804688 25.105469 C 24.882812 25.542969 24.957031 25.988281 25.105469 26.367188 C 25.25 26.765625 25.523438 26.875 25.804688 26.761719 C 26.109375 26.636719 26.445312 26.367188 26.742188 26.074219 C 27.046875 25.785156 27.339844 25.476562 27.628906 25.152344 L 28.542969 24.195312 C 28.878906 23.878906 29.101562 23.59375 29.496094 23.234375 C 29.910156 22.890625 30.492188 22.785156 30.972656 22.9375 C 31.457031 23.089844 31.808594 23.457031 32 23.859375 C 31.667969 23.5625 31.285156 23.339844 30.894531 23.324219 C 30.507812 23.289062 30.152344 23.445312 29.914062 23.699219 C 29.699219 23.976562 29.378906 24.390625 29.101562 24.707031 L 28.21875 25.691406 C 27.910156 26.015625 27.597656 26.34375 27.242188 26.640625 C 26.878906 26.921875 26.511719 27.234375 25.964844 27.363281 C 25.699219 27.433594 25.332031 27.382812 25.105469 27.179688 C 24.996094 27.089844 24.898438 26.972656 24.835938 26.835938 C 24.773438 26.707031 24.75 26.589844 24.726562 26.46875 C 24.667969 25.992188 24.707031 25.546875 24.804688 25.105469 Z M 23.601562 25.898438 C 23.746094 26.078125 23.867188 26.273438 23.917969 26.527344 C 23.941406 26.652344 23.949219 26.816406 23.832031 26.984375 C 23.734375 27.109375 23.636719 27.183594 23.507812 27.261719 C 23.25 27.40625 22.9375 27.410156 22.683594 27.355469 C 22.425781 27.300781 22.199219 27.203125 21.996094 27.085938 C 21.171875 26.628906 20.539062 25.992188 19.925781 25.386719 C 19.621094 25.078125 19.3125 24.78125 19.015625 24.457031 L 18.570312 23.964844 C 18.421875 23.78125 18.339844 23.683594 18.179688 23.574219 C 17.585938 23.15625 16.660156 23.269531 16 23.859375 C 16.214844 23.476562 16.570312 23.144531 17.023438 22.976562 C 17.472656 22.8125 18.011719 22.824219 18.472656 23.054688 C 18.695312 23.15625 18.929688 23.359375 19.066406 23.5 L 19.53125 23.9375 C 19.851562 24.222656 20.164062 24.527344 20.480469 24.824219 C 21.105469 25.421875 21.691406 26.042969 22.351562 26.492188 C 22.984375 26.960938 23.796875 27.011719 23.601562 25.898438 Z M 23.601562 25.898438 "/>
</g>
</svg>
